
<?xml version="1.0" encoding="UTF-8" standalone="no"?>
<svg width="63px" height="42px" viewBox="0 0 63 42" version="1.1" xmlns="http://www.w3.org/2000/svg">
  <path fill="#FAFAFA" d="M26.55975,31.668 C32.578875,30.279375 38.18325,29.061375 35.469,23.937375 C27.21075,8.339625 33.27975,0 42,0 C50.8935,0 56.8155,8.659875 48.531,23.937375 C45.735375,29.092875 51.547125,30.30825 57.44025,31.668 C62.6535,32.872875 63,35.42175 63,39.834375 L62.992125,42 L21.007875,42 C21.007875,36.2355 20.545875,33.056625 26.55975,31.668 L26.55975,31.668 Z M0.00525,42 L15.757875,42 C15.684375,24.82725 23.61975,32.295375 23.61975,18.634875 C23.61975,13.36125 20.178375,10.5 15.75,10.5 C9.2085,10.5 4.65675,16.755375 10.85175,28.452375 C12.886125,32.295375 8.686125,33.208875 4.171125,34.251 C0.259875,35.154 -1.77635684e-15,37.065 -1.77635684e-15,40.375125 L0.00525,42 L0.00525,42 Z" id="Shape"></path>
</svg>
