<svg _ngcontent-xph-c81="" xmlns="http://www.w3.org/2000/svg" version="1.1" width="48" height="48" viewBox="0 0 48 48" class="mode-icon-6"><!----><!----><!----><!----><!----><g _ngcontent-xph-c81="" class="ng-star-inserted"><path _ngcontent-xph-c81="" d="M39.0251152,13.7371281 C38.5812306,14.6766838 37.9671903,15.5052683 37.1090134,16.1045125 C36.4283904,16.5779894 35.5776116,16.9256989 34.4309098,17.0588643 C34.4752983,16.6667663 34.5048906,16.2672702 34.5048906,15.860376 L34.5048906,9.99370148 L39.9868651,9.99370148 C39.8906901,11.0220341 39.6391555,12.472057 39.0251152,13.7371281 L39.0251152,13.7371281 L39.0251152,13.7371281 Z M10.8458427,16.1045125 C9.56597546,15.2167433 8.81137168,13.7593223 8.38968133,12.2871051 C8.15294289,11.4585206 8.02717559,10.6447322 7.96799098,9.99370148 L13.4499655,9.99370148 L13.4499655,15.860376 C13.4499655,16.2672702 13.4721597,16.6667663 13.5239463,17.0588643 C12.3772444,16.933097 11.5338637,16.5779894 10.8458427,16.1045125 L10.8458427,16.1045125 L10.8458427,16.1045125 Z M42.9534937,8.46229969 L42.886911,7.07146136 L34.5048906,7.07146136 L34.5048906,5 L13.4499655,5 L13.4499655,7.07146136 L5.07534316,7.07146136 L5.00876047,8.45490162 C5.00876047,8.47709585 5.0013624,8.6176593 5.0013624,8.85439774 C5.00876047,9.83834188 5.09013931,12.4350667 6.29602575,14.987403 C6.902668,16.2598721 7.81263138,17.5397393 9.17387741,18.4940911 C10.4981331,19.4262487 12.2292829,20.0032987 14.3155404,20.032891 C15.928321,23.7763176 19.6495534,26.3878385 23.9848261,26.3878385 C28.3127007,26.3878385 32.0339331,23.7689195 33.6541118,20.032891 C35.7329712,20.0106968 37.4715191,19.4262487 38.7957748,18.4940911 C40.8376439,17.0514662 41.8511803,14.9356164 42.3764437,13.0860974 C42.9017071,11.2291802 42.9608917,9.58680729 42.9608917,8.85439774 C42.9608917,8.62505737 42.9534937,8.48449392 42.9534937,8.46229969 L42.9534937,8.46229969 L42.9534937,8.46229969 Z M26.8478816,33.6675455 L26.8478816,28.9031844 C25.9231221,29.1103306 24.9613722,29.2139036 23.977428,29.2139036 C22.9712897,29.2139036 21.9873455,29.0955344 21.0403918,28.8883883 L21.0403918,33.7415263 C20.9960033,36.9448933 18.3918804,39.53422 15.1663192,39.53422 L14.7964154,39.53422 L14.7964154,43.0113159 L33.0770618,43.0113159 L33.0770618,39.53422 L32.7145561,39.53422 C29.4815968,39.53422 26.8478816,36.907903 26.8478816,33.6675455 L26.8478816,33.6675455 L26.8478816,33.6675455 Z"></path></g><!----><!----><!----></svg>