<svg _ngcontent-xph-c81="" xmlns="http://www.w3.org/2000/svg" version="1.1" width="48" height="48" viewBox="0 0 48 48" class="mode-icon-3"><!----><!----><g _ngcontent-xph-c81="" class="ng-star-inserted"><path _ngcontent-xph-c81="" d="M33.0297398,37.2007435 C34.6728625,36.0855019 36.0855019,34.6951673 37.2379182,33.0594796 L43,38.8215613 L38.8289963,42.9925651 L33.0297398,37.2007435 L33.0297398,37.2007435 Z M5,38.8215613 L10.7472119,33.0743494 C11.8996283,34.7100372 13.3122677,36.0929368 14.9553903,37.2156134 L9.17100372,43 L5,38.8215613 L5,38.8215613 Z M37.4312268,14.739777 C36.3085502,13.0892193 34.9256506,11.6765799 33.2973978,10.5241636 L38.8215613,5 L42.9925651,9.17100372 L37.4312268,14.739777 L37.4312268,14.739777 Z M5,9.17100372 L9.17100372,5 L14.6951673,10.5241636 C13.0669145,11.6765799 11.6840149,13.0892193 10.5613383,14.739777 L5,9.17100372 L5,9.17100372 Z M23.9962825,10.3605948 C16.5836431,10.3605948 10.5762082,16.3680297 10.5762082,23.7806691 C10.5762082,29.2379182 13.8327138,33.929368 18.5092937,36.0260223 L18.5092937,39.3122677 C18.8364312,39.8624535 19.7360595,40.2565056 20.8884758,40.5018587 L20.8884758,38.605948 L22.732342,38.605948 L22.732342,40.7472119 C23.5724907,40.8066914 24.4498141,40.8066914 25.2825279,40.7472119 L25.2825279,38.605948 L27.1263941,38.605948 L27.1263941,40.4944238 C28.2713755,40.2490706 29.1561338,39.8550186 29.4832714,39.3122677 L29.4832714,36.0260223 C34.1598513,33.929368 37.4163569,29.2304833 37.4163569,23.7732342 C37.4163569,16.3680297 31.4089219,10.3605948 23.9962825,10.3605948 L23.9962825,10.3605948 Z M18.1226766,28.7992565 C15.7657993,28.7992565 13.8550186,26.8884758 13.8550186,24.5315985 C13.8550186,22.1747212 15.7657993,20.2639405 18.1226766,20.2639405 C20.4795539,20.2639405 22.3903346,22.1747212 22.3903346,24.5315985 C22.3903346,26.8884758 20.4795539,28.7992565 18.1226766,28.7992565 L18.1226766,28.7992565 Z M21.260223,32.1747212 L24.0855019,28.2639405 L24.0855019,28.2713755 L24.0855019,28.2639405 L26.9182156,32.1747212 L21.260223,32.1747212 L21.260223,32.1747212 L21.260223,32.1747212 Z M30.063197,28.7992565 C27.7063197,28.7992565 25.795539,26.8884758 25.795539,24.5315985 C25.795539,22.1747212 27.7063197,20.2639405 30.063197,20.2639405 C32.4200743,20.2639405 34.330855,22.1747212 34.330855,24.5315985 C34.330855,26.8884758 32.4200743,28.7992565 30.063197,28.7992565 L30.063197,28.7992565 Z"></path></g><!----><!----><!----><!----><!----><!----></svg>