<?xml version="1.0" encoding="UTF-8"?>
<!DOCTYPE svg PUBLIC "-//W3C//DTD SVG 1.1//EN" "http://www.w3.org/Graphics/SVG/1.1/DTD/svg11.dtd">
<!-- Creator: CorelDRAW 2019 (64-Bit) -->
<svg xmlns="http://www.w3.org/2000/svg" xmlSpace="preserve" width="26px" height="26px" version="1.1" shape-rendering="geometricPrecision" text-rendering="geometricPrecision" image-rendering="optimizeQuality" fill-rule="evenodd" clip-rule="evenodd"
viewBox="0 0 25 25"
 xmlnsXlink="http://www.w3.org/1999/xlink"
 xmlnsXodm="http://www.corel.com/coreldraw/odm/2003">
 <g id="New_2D_x0020_Drafting_x0020_-_x0020_General_Pen_No__2">
  <metadata id="CorelCorpID_0Corel-Layer"/>
  <polygon points="0,4.58 10.87,4.58 3.96,25 8.88,25 15.79,4.58 25,4.58 25,0 0,0 "/>
  <polygon points="5.64,8.33 0,8.33 0,25 "/>
  <path d="M25 8.33l-6.52 0 -5.64 16.67 8.41 0c-1,0 -1.95,-0.4 -2.65,-1.1 -0.71,-0.7 -1.1,-1.66 -1.1,-2.65 0,-1.34 0.71,-2.58 1.87,-3.25 1.16,-0.67 2.59,-0.67 3.75,0 1.16,0.67 1.88,1.91 1.88,3.25l0 -12.92z"/>
 </g>
</svg>
