<?xml version="1.0" encoding="UTF-8"?>
<!DOCTYPE svg PUBLIC "-//W3C//DTD SVG 1.1//EN" "http://www.w3.org/Graphics/SVG/1.1/DTD/svg11.dtd">
<svg xmlns="http://www.w3.org/2000/svg" xmlSpace="preserve" width="182px" height="26px" version="1.1" shape-rendering="geometricPrecision" text-rendering="geometricPrecision" image-rendering="optimizeQuality" fill-rule="evenodd" clip-rule="evenodd"
viewBox="0 0 175 25"
 xmlnsXlink="http://www.w3.org/1999/xlink"
 xmlnsXodm="http://www.corel.com/coreldraw/odm/2003">
 <g id="New_2D_x0020_Drafting_x0020_-_x0020_General_Pen_No__2">
  <metadata id="CorelCorpID_0Corel-Layer"/>
  <polygon points="5.64,8.34 0,8.34 0,25 "/>
  <path d="M59.1 4.59l115.9 0 0 -4.59 -115.9 0 -59.1 0 0 4.59 10.87 0 -6.91 20.41 8.79 0c-1,0 -1.95,-0.39 -2.65,-1.09 -0.71,-0.71 -1.1,-1.66 -1.1,-2.66 0,-1.34 0.71,-2.58 1.87,-3.25 1.16,-0.67 2.59,-0.67 3.75,0 1.16,0.67 1.88,1.91 1.88,3.25 0,1.96 -1.5,3.57 -3.42,3.74 -0.11,0.01 -0.22,0.01 -0.33,0.01l9.7 0c-0.58,-0.13 -1.05,-0.38 -1.41,-0.76 -0.55,-0.58 -0.82,-1.45 -0.82,-2.61l0 -4.06 2.24 0 0 4.15c0,0.47 0.09,0.84 0.27,1.09 0.18,0.26 0.43,0.39 0.76,0.39 0.34,0 0.59,-0.12 0.77,-0.36 0.17,-0.25 0.26,-0.6 0.26,-1.07l0 -4.2 2.24 0 0 4.02c0,1.19 -0.27,2.07 -0.81,2.65 -0.36,0.38 -0.85,0.63 -1.46,0.76l18.49 0 6.92 -20.41 9.2 0zm-24.18 20.39l-0.55 -1.6c-0.1,-0.31 -0.24,-0.56 -0.41,-0.74 -0.17,-0.18 -0.36,-0.27 -0.56,-0.27l-0.09 0 0 2.61 -2.23 0 0 -7.41 2.96 0c1.04,0 1.81,0.17 2.3,0.51 0.49,0.34 0.74,0.84 0.74,1.52 0,0.51 -0.14,0.94 -0.43,1.28 -0.29,0.35 -0.72,0.6 -1.28,0.75l0 0.02c0.31,0.1 0.57,0.26 0.78,0.47 0.21,0.22 0.4,0.54 0.56,0.97l0.73 1.89 -2.52 0zm-0.21 -5.06c0,-0.25 -0.08,-0.45 -0.23,-0.59 -0.15,-0.15 -0.39,-0.22 -0.71,-0.22l-0.46 0 0 1.7 0.4 0c0.3,0 0.54,-0.09 0.73,-0.26 0.18,-0.17 0.27,-0.38 0.27,-0.63zm24.39 -11.58l-6.51 0 -5.65 16.66 8.89 0 3.75 0 7.26 0 3.75 0 4.1 0 0 -7.41 2.23 0 0 5.67 2.55 0 0 1.74 95.53 0 0 -16.66 -115.9 0zm7.74 16.66c-0.99,0 -1.95,-0.39 -2.65,-1.09 -0.7,-0.71 -1.1,-1.66 -1.1,-2.66 0,-1.34 0.72,-2.58 1.88,-3.25 1.16,-0.66 2.59,-0.66 3.75,0 1.16,0.67 1.87,1.91 1.87,3.25 0,1.96 -1.5,3.57 -3.41,3.74 -0.11,0.01 -0.23,0.01 -0.34,0.01zm-11.01 0c-0.99,0 -1.95,-0.39 -2.65,-1.09 -0.7,-0.71 -1.1,-1.66 -1.1,-2.66 0,-1.34 0.72,-2.58 1.88,-3.25 1.16,-0.66 2.59,-0.66 3.75,0 1.16,0.67 1.87,1.91 1.87,3.25 0,2.07 -1.68,3.75 -3.75,3.75z"/>
  <polygon points="14.83,4.59 45.94,4.59 44.67,8.34 13.56,8.34 "/>
 </g>
</svg>
