<?xml version="1.0" encoding="UTF-8" standalone="no"?>
<svg width="48px" height="48px" viewBox="0 0 48 48" version="1.1" xmlns="http://www.w3.org/2000/svg">
    <g stroke="none" stroke-width="1" fill="none" fill-rule="evenodd" >
        <g id="MonsterDYP"  fill="#FAFAFA">
            <path d="M40.2936803,26.7105424 L40.2936803,29.4232355 L37.5799257,29.4232355 L37.5799257,14.4997072 L34.866171,14.4997072 L34.866171,15.1760225 C34.866171,15.5476243 34.5613383,15.8523378 34.1895911,15.8523378 C33.8178439,15.8523378 33.5130112,15.5476243 33.5130112,15.1760225 L33.5130112,14.4997072 L30.7992565,14.4997072 L30.7992565,15.1760225 C30.7992565,15.5476243 30.4944238,15.8523378 30.1226766,15.8523378 C29.7509294,15.8523378 29.4460967,15.5476243 29.4460967,15.1760225 L29.4460967,14.4997072 L26.732342,14.4997072 L26.732342,15.1760225 C26.732342,15.5476243 26.4275093,15.8523378 26.0557621,15.8523378 C25.6840149,15.8523378 25.3791822,15.5476243 25.3791822,15.1760225 L25.3791822,14.4997072 L22.6654275,14.4997072 L22.6654275,15.1760225 C22.6654275,15.5476243 22.3605948,15.8523378 21.9888476,15.8523378 C21.6171004,15.8523378 21.3122677,15.5476243 21.3122677,15.1760225 L21.3122677,14.4997072 L19.2750929,14.4997072 C18.9033457,14.4997072 18.598513,14.1949938 18.598513,13.823392 C18.598513,13.4517902 18.9033457,13.1470767 19.2750929,13.1470767 L21.3122677,13.1470767 L21.3122677,12.4707614 C21.3122677,12.0991596 21.6171004,11.7944461 21.9888476,11.7944461 C22.3605948,11.7944461 22.6654275,12.0991596 22.6654275,12.4707614 L22.6654275,13.1470767 L25.3791822,13.1470767 L25.3791822,12.4707614 C25.3791822,12.0991596 25.6840149,11.7944461 26.0557621,11.7944461 C26.4275093,11.7944461 26.732342,12.0991596 26.732342,12.4707614 L26.732342,13.1470767 L29.4460967,13.1470767 L29.4460967,12.4707614 C29.4460967,12.0991596 29.7509294,11.7944461 30.1226766,11.7944461 C30.4944238,11.7944461 30.7992565,12.0991596 30.7992565,12.4707614 L30.7992565,13.1470767 L33.5130112,13.1470767 L33.5130112,12.4707614 C33.5130112,12.0991596 33.8178439,11.7944461 34.1895911,11.7944461 C34.5613383,11.7944461 34.866171,12.0991596 34.866171,12.4707614 L34.866171,13.1470767 L37.5799257,13.1470767 L37.5799257,5.00156525 L33.0520446,7.71425839 L30.0408922,5.00156525 L27.0223048,7.71425839 L24.0037175,5.00156525 L20.9851301,7.71425839 L17.9739777,5.00156525 L14.9553903,7.71425839 L10.4349442,5.00156525 L10.4349442,29.4306675 L7.71375465,29.4306675 L7.71375465,26.7179744 L5,26.7179744 L5,34.8634858 L7.71375465,34.8634858 L7.71375465,32.1507927 L10.4275093,32.1507927 L10.4275093,37.576179 C10.4275093,40.5638574 12.8736059,43.0015653 15.8550186,43.0015653 L32.1449814,43.0015653 C35.133829,43.0015653 37.5724907,40.5564254 37.5724907,37.576179 L37.5724907,32.1507927 L40.2862454,32.1507927 L40.2862454,34.8634858 L43,34.8634858 L43,26.7105424 L40.2936803,26.7105424 L40.2936803,26.7105424 Z M18.5836431,26.0342271 C16.7100372,26.0342271 15.1858736,24.5180918 15.1858736,22.6452187 L21.9739777,22.6452187 C21.9739777,24.5180918 20.4572491,26.0342271 18.5836431,26.0342271 L18.5836431,26.0342271 Z M29.4386617,26.0342271 C27.5650558,26.0342271 26.0408922,24.5180918 26.0408922,22.6452187 L32.8289963,22.6452187 C32.8289963,24.5180918 31.3122677,26.0342271 29.4386617,26.0342271 L29.4386617,26.0342271 Z"></path>
        </g>
    </g>
</svg>
