
<?xml version="1.0" encoding="UTF-8" standalone="no"?>
<svg width="76px" height="42px" viewBox="0 0 76 42" version="1.1" xmlns="http://www.w3.org/2000/svg">
    <!-- Generator: Sketch 3.6.1 (26313) - http://www.bohemiancoding.com/sketch -->
    <title>iconmonstr-user-29-2</title>
    <desc>Created with Sketch.</desc>
    <defs></defs>
    <g stroke="none" stroke-width="1" fill="none" fill-rule="evenodd">
        <g transform="translate(-438.000000, -279.000000)" fill="#FAFAFA">
            <g transform="translate(438.000000, 279.000000)">
                <path d="M56.9905,42 L19.0063333,42 L19,39.8195 C19,35.413 19.3166667,32.8685 24.0286667,31.6645 C29.3613333,30.303 34.618,29.0885 32.0878333,23.933 C24.5955,8.6625 29.9535,3.55271368e-15 37.9968333,3.55271368e-15 C45.885,3.55271368e-15 51.3791667,8.3405 43.9058333,23.9365 C41.4516667,29.0605 46.5215,30.2785 51.965,31.668 C56.6833333,32.872 56.9968333,35.42 56.9968333,39.8335 L56.9905,42 L56.9905,42 Z M72.2253333,34.251 C68.1403333,33.208 64.3403333,32.2945 66.1801667,28.4515 C71.782,16.7545 67.6653333,10.5 61.7468333,10.5 C57.741,10.5 54.6281667,13.3595 54.6281667,18.634 C54.6281667,32.2945 61.8101667,24.829 61.7405,42 L75.9936667,42 L76,40.3795 C76,37.0685 75.7656667,35.154 72.2253333,34.251 L72.2253333,34.251 Z M0.00633333333,42 L14.2595,42 C14.193,24.829 21.3718333,32.298 21.3718333,18.634 C21.3718333,13.3595 18.259,10.5 14.2531667,10.5 C8.33466667,10.5 4.218,16.7545 9.823,28.4515 C11.6628333,32.298 7.86283333,33.208 3.77783333,34.251 C0.234333333,35.154 0,37.0685 0,40.3795 L0.00633333333,42 L0.00633333333,42 Z" id="Shape"></path>
            </g>
        </g>
    </g>
</svg>
