<?xml version="1.0" encoding="UTF-8" standalone="no"?>
<svg width="471px" height="96px" viewBox="0 0 471 96" version="1.1" xmlns="http://www.w3.org/2000/svg"
     xmlns:sketch="http://www.bohemiancoding.com/sketch/ns">
    <!-- Generator: Sketch 3.0.2 (7799) - http://www.bohemiancoding.com/sketch -->
    <title>Slice 1</title>
    <description>Created with Sketch.</description>
    <defs></defs>
    <g id="Page-1" stroke="none" stroke-width="1" fill="none" fill-rule="evenodd" sketch:type="MSPage">
        <path d="M45.8367882,26 L45.8367882,70 L447.913872,70 L471,70 L451.23777,47.3514919 L471,26 L45.8367882,26 Z" id="Fill-1" fill="#ADC582" sketch:type="MSShapeGroup"></path>
        <g id="Fill-2-+-Fill-3" sketch:type="MSLayerGroup">
            <path d="M92.1420967,48.1021446 L83.3555051,57.0719783 L87.9718497,68.6965663 L76.3238777,73.5009614 L75.7165259,85.9716723 L63.1233921,85.3757783 L56.8615478,96.2031253 L46.0704598,89.7565301 L35.2781948,96.2031253 L29.0163505,85.3746145 L16.4232167,85.9716723 L15.818219,73.5009614 L4.17142407,68.6965663 L8.78541458,57.0719783 L0,48.1021446 L8.78541458,39.1346386 L4.17142407,27.5053952 L15.818219,22.7021639 L16.4255708,10.231453 L29.0187046,10.827347 L35.2805489,0 L46.0704598,6.44775904 L56.8639019,0.00116385542 L63.1257462,10.8285108 L75.71888,10.2326169 L76.3238777,22.7044916 L87.9718497,27.5077229 L83.3555051,39.1346386 L92.1420967,48.1021446" id="Fill-2" fill="#8EBD5E" sketch:type="MSShapeGroup"></path>
            <path d="M64.4946418,36.7091639 C63.9579123,37.8974602 63.2269715,38.9426024 62.2170725,39.6932892 C61.4131553,40.2822 60.4091416,40.7174819 59.0673178,40.8676193 C59.1238156,40.370653 59.1591268,39.8620482 59.1638349,39.3499518 L59.2368113,31.8966217 L65.665795,31.9699446 C65.5374978,33.2827735 65.2255827,35.1123542 64.4946418,36.7091639 M31.3963222,39.3394771 C29.9097227,38.1977349 29.0351831,36.3367301 28.5631907,34.4594313 C28.2936489,33.4038145 28.1629977,32.3644916 28.0994376,31.5393181 L34.5284213,31.6138048 L34.4554449,39.0636434 C34.4495597,39.5745759 34.4754546,40.0855084 34.5237132,40.5848024 C33.1818894,40.4055687 32.1908231,39.9458458 31.3963222,39.3394771 M69.1651302,30.0705325 L69.1039242,28.3026361 L59.2721225,28.190906 L59.2968403,25.5617566 L34.5919814,25.276612 L34.5660866,27.909253 L24.737816,27.7951952 L24.6377677,29.551453 C24.6377677,29.5770578 24.6283514,29.7597831 24.6259973,30.058894 C24.6224662,31.3007277 24.6883803,34.599094 26.0666923,37.8613807 C26.762322,39.4837952 27.8169484,41.1155205 29.398888,42.3492072 C30.9431624,43.5491422 32.9688454,44.306812 35.4159083,44.3673325 C37.2615045,49.1391398 41.5918287,52.5108289 46.6789887,52.5678578 C51.7602634,52.6260506 56.1588559,49.3567807 58.1009693,44.6292 C60.5433239,44.6257084 62.5890167,43.9134289 64.1556548,42.7484096 C66.5721146,40.9467614 67.7891723,38.2687301 68.4283041,35.9363639 C69.0709671,33.5888675 69.1568909,31.5020747 69.1674843,30.5686627 C69.1710154,30.2742072 69.1651302,30.0996289 69.1651302,30.0705325 M49.9652799,60.9313229 L50.0241318,54.8862578 C48.9353713,55.134159 47.8065915,55.2598554 46.6519168,55.2447253 C45.4725243,55.2319229 44.3190267,55.0713108 43.2126106,54.7908217 L43.1525816,60.9499446 C43.0654808,65.0187831 39.9686928,68.271759 36.1903995,68.2263687 L35.7584264,68.2228771 L35.714876,72.6373807 L57.1687549,72.8852819 L57.2146594,68.4684506 L56.7850403,68.464959 C52.9761441,68.4195687 49.9240835,65.0478795 49.9652799,60.9313229" id="Fill-3" fill="#222D33" sketch:type="MSShapeGroup"></path>
        </g>
    </g>
</svg>
